# MagicaVoxel @ Ephtracy

# group
g obj_zombie

# material
mtllib obj_zombie.mtl
usemtl palette

# normals
vn -1 0 0
vn 1 0 0
vn 0 0 1
vn 0 0 -1
vn 0 -1 0
vn 0 1 0

# texcoords
vt 0.00195313 0.5
vt 0.00585938 0.5
vt 0.00976563 0.5
vt 0.0136719 0.5
vt 0.0175781 0.5
vt 0.0214844 0.5
vt 0.306641 0.5

# verts
v -4 3 4
v -4 3 2
v -4 3 -1
v -4 4 4
v -4 4 2
v -4 4 -1
v -3 0 2
v -3 0 -2
v -3 1 3
v -3 1 2
v -3 1 -1
v -3 1 -2
v -3 1 -3
v -3 2 3
v -3 2 -1
v -3 3 3
v -3 3 2
v -3 3 -1
v -3 4 3
v -3 4 2
v -3 4 -1
v -3 4 -3
v -3 5 1
v -3 5 -1
v -3 5 -2
v -3 5 -3
v -3 6 3
v -3 6 1
v -3 6 -1
v -3 6 -2
v -3 7 3
v -3 7 2
v -3 7 -2
v -3 7 -3
v -3 8 2
v -3 8 -2
v -2 0 3
v -2 0 2
v -2 0 -2
v -2 0 -3
v -2 1 3
v -2 1 2
v -2 1 -2
v -2 1 -3
v -2 7 3
v -2 7 2
v -2 7 -2
v -2 7 -3
v -2 8 3
v -2 8 2
v -2 8 -2
v -2 8 -3
v -1 4 4
v -1 4 3
v -1 5 4
v -1 5 3
v 3 3 4
v 3 3 3
v 3 4 4
v 3 4 3
v -3 3 4
v -3 3 3
v -3 4 4
v -3 4 3
v 1 4 4
v 1 4 3
v 1 5 4
v 1 5 3
v 2 0 3
v 2 0 2
v 2 0 -2
v 2 0 -3
v 2 1 3
v 2 1 2
v 2 1 -2
v 2 1 -3
v 2 7 3
v 2 7 2
v 2 7 -2
v 2 7 -3
v 2 8 3
v 2 8 2
v 2 8 -2
v 2 8 -3
v 3 0 2
v 3 0 -2
v 3 1 3
v 3 1 2
v 3 1 1
v 3 1 -2
v 3 1 -3
v 3 2 1
v 3 2 -3
v 3 3 3
v 3 3 2
v 3 3 -1
v 3 4 3
v 3 4 2
v 3 4 -1
v 3 4 -3
v 3 5 1
v 3 5 -1
v 3 5 -2
v 3 5 -3
v 3 6 3
v 3 6 1
v 3 6 -1
v 3 6 -2
v 3 7 3
v 3 7 2
v 3 7 -2
v 3 7 -3
v 3 8 2
v 3 8 -2
v 4 3 4
v 4 3 2
v 4 3 -1
v 4 4 4
v 4 4 2
v 4 4 -1
v -4 3 4
v -4 4 4
v -3 3 4
v -3 4 4
v -1 4 4
v -1 5 4
v 1 4 4
v 1 5 4
v 3 3 4
v 3 4 4
v 4 3 4
v 4 4 4
v -3 1 3
v -3 2 3
v -3 3 3
v -3 4 3
v -3 6 3
v -3 7 3
v -2 0 3
v -2 1 3
v -2 5 3
v -2 6 3
v -2 7 3
v -2 8 3
v -1 1 3
v -1 2 3
v -1 4 3
v -1 5 3
v -1 6 3
v -1 7 3
v -1 8 3
v 1 4 3
v 1 5 3
v 1 6 3
v 1 7 3
v 1 8 3
v 2 0 3
v 2 1 3
v 2 5 3
v 2 6 3
v 2 7 3
v 2 8 3
v 3 1 3
v 3 3 3
v 3 4 3
v 3 6 3
v 3 7 3
v -3 0 2
v -3 1 2
v -3 7 2
v -3 8 2
v -2 0 2
v -2 1 2
v -2 7 2
v -2 8 2
v 2 0 2
v 2 1 2
v 2 7 2
v 2 8 2
v 3 0 2
v 3 1 2
v 3 7 2
v 3 8 2
v -4 3 -1
v -4 4 -1
v -3 3 -1
v -3 4 -1
v 3 3 -1
v 3 4 -1
v 4 3 -1
v 4 4 -1
v -3 0 -2
v -3 1 -2
v -3 7 -2
v -3 8 -2
v -2 0 -2
v -2 1 -2
v -2 7 -2
v -2 8 -2
v 2 0 -2
v 2 1 -2
v 2 7 -2
v 2 8 -2
v 3 0 -2
v 3 1 -2
v 3 7 -2
v 3 8 -2
v -3 1 -3
v -3 4 -3
v -3 5 -3
v -3 7 -3
v -2 0 -3
v -2 1 -3
v -2 3 -3
v -2 4 -3
v -2 7 -3
v -2 8 -3
v -1 4 -3
v -1 5 -3
v -1 6 -3
v -1 7 -3
v 1 1 -3
v 1 2 -3
v 1 4 -3
v 1 5 -3
v 1 6 -3
v 1 7 -3
v 2 0 -3
v 2 1 -3
v 2 3 -3
v 2 4 -3
v 2 7 -3
v 2 8 -3
v 3 1 -3
v 3 2 -3
v 3 4 -3
v 3 5 -3
v 3 7 -3
v -2 0 3
v 2 0 3
v -3 0 2
v -2 0 2
v 2 0 2
v 3 0 2
v -3 0 -2
v -2 0 -2
v 2 0 -2
v 3 0 -2
v -2 0 -3
v 2 0 -3
v -3 1 3
v -2 1 3
v 2 1 3
v 3 1 3
v -3 1 2
v -2 1 2
v 2 1 2
v 3 1 2
v -3 1 -2
v -2 1 -2
v 2 1 -2
v 3 1 -2
v -3 1 -3
v -2 1 -3
v 2 1 -3
v 3 1 -3
v -4 3 4
v -3 3 4
v 3 3 4
v 4 3 4
v -3 3 3
v 3 3 3
v -4 3 2
v -3 3 2
v 3 3 2
v 4 3 2
v -4 3 -1
v -3 3 -1
v 3 3 -1
v 4 3 -1
v -1 4 4
v 1 4 4
v -1 4 3
v 1 4 3
v -4 4 4
v -3 4 4
v 3 4 4
v 4 4 4
v -3 4 3
v 3 4 3
v -4 4 2
v -3 4 2
v 3 4 2
v 4 4 2
v -4 4 -1
v -3 4 -1
v 3 4 -1
v 4 4 -1
v -1 5 4
v 1 5 4
v -1 5 3
v 1 5 3
v -3 7 3
v -2 7 3
v 2 7 3
v 3 7 3
v -3 7 2
v -2 7 2
v 2 7 2
v 3 7 2
v -3 7 -2
v -2 7 -2
v 2 7 -2
v 3 7 -2
v -3 7 -3
v -2 7 -3
v 2 7 -3
v 3 7 -3
v -2 8 3
v -1 8 3
v 1 8 3
v 2 8 3
v -3 8 2
v -2 8 2
v 2 8 2
v 3 8 2
v -2 8 -0
v -1 8 -0
v 1 8 -0
v 2 8 -0
v -3 8 -2
v -2 8 -2
v 2 8 -2
v 3 8 -2
v -2 8 -3
v 2 8 -3

# faces
f 4/1/1 2/1/1 1/1/1
f 5/4/1 3/4/1 2/4/1
f 5/1/1 2/1/1 4/1/1
f 6/4/1 3/4/1 5/4/1
f 10/5/1 8/5/1 7/5/1
f 11/5/1 8/5/1 10/5/1
f 12/5/1 8/5/1 11/5/1
f 14/5/1 10/5/1 9/5/1
f 14/5/1 11/5/1 10/5/1
f 15/4/1 13/4/1 12/4/1
f 15/5/1 11/5/1 14/5/1
f 15/4/1 12/4/1 11/4/1
f 16/4/1 15/4/1 14/4/1
f 17/4/1 15/4/1 16/4/1
f 18/4/1 13/4/1 15/4/1
f 18/4/1 15/4/1 17/4/1
f 21/4/1 13/4/1 18/4/1
f 22/4/1 13/4/1 21/4/1
f 23/1/1 20/1/1 19/1/1
f 23/1/1 21/1/1 20/1/1
f 23/1/1 22/1/1 21/1/1
f 24/1/1 22/1/1 23/1/1
f 25/1/1 22/1/1 24/1/1
f 26/1/1 22/1/1 25/1/1
f 27/1/1 23/1/1 19/1/1
f 28/6/1 24/6/1 23/6/1
f 28/1/1 23/1/1 27/1/1
f 29/1/1 25/1/1 24/1/1
f 29/6/1 24/6/1 28/6/1
f 30/6/1 26/6/1 25/6/1
f 30/1/1 25/1/1 29/1/1
f 31/6/1 28/6/1 27/6/1
f 31/6/1 29/6/1 28/6/1
f 31/6/1 30/6/1 29/6/1
f 32/6/1 30/6/1 31/6/1
f 33/6/1 26/6/1 30/6/1
f 33/6/1 30/6/1 32/6/1
f 34/6/1 26/6/1 33/6/1
f 35/6/1 33/6/1 32/6/1
f 36/6/1 33/6/1 35/6/1
f 41/5/1 38/5/1 37/5/1
f 42/5/1 38/5/1 41/5/1
f 43/5/1 40/5/1 39/5/1
f 44/5/1 40/5/1 43/5/1
f 49/6/1 46/6/1 45/6/1
f 50/6/1 46/6/1 49/6/1
f 51/1/1 48/1/1 47/1/1
f 52/1/1 48/1/1 51/1/1
f 55/3/1 54/3/1 53/3/1
f 56/3/1 54/3/1 55/3/1
f 59/1/1 58/1/1 57/1/1
f 60/1/1 58/1/1 59/1/1
f 61/1/2 62/1/2 63/1/2
f 63/1/2 62/1/2 64/1/2
f 65/3/2 66/3/2 67/3/2
f 67/3/2 66/3/2 68/3/2
f 69/5/2 70/5/2 73/5/2
f 73/5/2 70/5/2 74/5/2
f 71/5/2 72/5/2 75/5/2
f 75/5/2 72/5/2 76/5/2
f 77/6/2 78/6/2 81/6/2
f 81/6/2 78/6/2 82/6/2
f 79/1/2 80/1/2 83/1/2
f 83/1/2 80/1/2 84/1/2
f 85/5/2 86/5/2 88/5/2
f 88/5/2 86/5/2 89/5/2
f 89/5/2 86/5/2 90/5/2
f 87/4/2 88/4/2 92/4/2
f 90/5/2 91/5/2 92/5/2
f 89/5/2 90/5/2 92/5/2
f 88/4/2 89/4/2 92/4/2
f 92/5/2 91/5/2 93/5/2
f 87/4/2 92/4/2 94/4/2
f 92/4/2 93/4/2 94/4/2
f 94/4/2 93/4/2 95/4/2
f 95/4/2 93/4/2 96/4/2
f 96/4/2 93/4/2 99/4/2
f 99/4/2 93/4/2 100/4/2
f 97/1/2 98/1/2 101/1/2
f 98/1/2 99/1/2 101/1/2
f 99/1/2 100/1/2 101/1/2
f 101/1/2 100/1/2 102/1/2
f 102/1/2 100/1/2 103/1/2
f 103/1/2 100/1/2 104/1/2
f 97/1/2 101/1/2 105/1/2
f 101/6/2 102/6/2 106/6/2
f 105/1/2 101/1/2 106/1/2
f 102/1/2 103/1/2 107/1/2
f 106/6/2 102/6/2 107/6/2
f 103/6/2 104/6/2 108/6/2
f 107/1/2 103/1/2 108/1/2
f 105/6/2 106/6/2 109/6/2
f 106/6/2 107/6/2 109/6/2
f 107/6/2 108/6/2 109/6/2
f 109/6/2 108/6/2 110/6/2
f 108/6/2 104/6/2 111/6/2
f 110/6/2 108/6/2 111/6/2
f 111/6/2 104/6/2 112/6/2
f 110/6/2 111/6/2 113/6/2
f 113/6/2 111/6/2 114/6/2
f 115/1/2 116/1/2 118/1/2
f 116/4/2 117/4/2 119/4/2
f 118/1/2 116/1/2 119/1/2
f 119/4/2 117/4/2 120/4/2
f 123/1/3 122/1/3 121/1/3
f 124/1/3 122/1/3 123/1/3
f 127/3/3 126/3/3 125/3/3
f 128/3/3 126/3/3 127/3/3
f 131/1/3 130/1/3 129/1/3
f 132/1/3 130/1/3 131/1/3
f 140/5/3 134/5/3 133/5/3
f 141/1/3 136/1/3 135/1/3
f 141/1/3 137/1/3 136/1/3
f 142/6/3 138/6/3 137/6/3
f 142/1/3 137/1/3 141/1/3
f 143/6/3 138/6/3 142/6/3
f 145/5/3 140/5/3 139/5/3
f 145/5/3 134/5/3 140/5/3
f 146/4/3 135/4/3 134/4/3
f 146/5/3 134/5/3 145/5/3
f 147/1/3 141/1/3 135/1/3
f 148/2/3 142/2/3 141/2/3
f 148/1/3 141/1/3 147/1/3
f 149/1/3 143/1/3 142/1/3
f 149/2/3 142/2/3 148/2/3
f 150/6/3 144/6/3 143/6/3
f 150/1/3 143/1/3 149/1/3
f 151/6/3 144/6/3 150/6/3
f 152/1/3 147/1/3 135/1/3
f 153/1/3 149/1/3 148/1/3
f 153/1/3 151/1/3 150/1/3
f 153/1/3 150/1/3 149/1/3
f 154/1/3 151/1/3 153/1/3
f 155/1/3 151/1/3 154/1/3
f 156/1/3 151/1/3 155/1/3
f 157/5/3 145/5/3 139/5/3
f 158/4/3 146/4/3 145/4/3
f 158/5/3 145/5/3 157/5/3
f 159/1/3 153/1/3 152/1/3
f 159/2/3 154/2/3 153/2/3
f 160/1/3 155/1/3 154/1/3
f 160/2/3 154/2/3 159/2/3
f 161/6/3 156/6/3 155/6/3
f 161/1/3 155/1/3 160/1/3
f 162/6/3 156/6/3 161/6/3
f 163/4/3 146/4/3 158/4/3
f 164/4/3 135/4/3 146/4/3
f 164/4/3 146/4/3 163/4/3
f 164/1/3 152/1/3 135/1/3
f 164/1/3 160/1/3 159/1/3
f 164/1/3 159/1/3 152/1/3
f 165/1/3 160/1/3 164/1/3
f 166/6/3 161/6/3 160/6/3
f 166/1/3 160/1/3 165/1/3
f 167/6/3 161/6/3 166/6/3
f 172/5/3 169/5/3 168/5/3
f 173/5/3 169/5/3 172/5/3
f 174/6/3 171/6/3 170/6/3
f 175/6/3 171/6/3 174/6/3
f 180/5/3 177/5/3 176/5/3
f 181/5/3 177/5/3 180/5/3
f 182/6/3 179/6/3 178/6/3
f 183/6/3 179/6/3 182/6/3
f 184/4/4 185/4/4 186/4/4
f 186/4/4 185/4/4 187/4/4
f 188/4/4 189/4/4 190/4/4
f 190/4/4 189/4/4 191/4/4
f 192/5/4 193/5/4 196/5/4
f 196/5/4 193/5/4 197/5/4
f 194/6/4 195/6/4 198/6/4
f 198/6/4 195/6/4 199/6/4
f 200/5/4 201/5/4 204/5/4
f 204/5/4 201/5/4 205/5/4
f 202/6/4 203/6/4 206/6/4
f 206/6/4 203/6/4 207/6/4
f 208/4/4 209/4/4 213/4/4
f 213/4/4 209/4/4 214/4/4
f 209/1/4 210/1/4 215/1/4
f 214/4/4 209/4/4 215/4/4
f 210/6/4 211/6/4 216/6/4
f 215/1/4 210/1/4 218/1/4
f 214/1/4 215/1/4 218/1/4
f 210/6/4 216/6/4 219/6/4
f 218/1/4 210/1/4 219/1/4
f 219/6/4 216/6/4 220/6/4
f 216/1/4 217/1/4 221/1/4
f 220/6/4 216/6/4 221/6/4
f 213/4/4 214/4/4 222/4/4
f 212/5/4 213/5/4 222/5/4
f 222/4/4 214/4/4 223/4/4
f 219/6/4 220/6/4 224/6/4
f 214/1/4 218/1/4 224/1/4
f 218/6/4 219/6/4 224/6/4
f 224/6/4 220/6/4 225/6/4
f 220/1/4 221/1/4 226/1/4
f 225/6/4 220/6/4 226/6/4
f 221/1/4 217/1/4 227/1/4
f 226/1/4 221/1/4 227/1/4
f 222/5/4 223/5/4 228/5/4
f 212/5/4 222/5/4 228/5/4
f 228/5/4 223/5/4 229/5/4
f 223/4/4 214/4/4 230/4/4
f 224/1/4 225/1/4 230/1/4
f 214/1/4 224/1/4 230/1/4
f 230/1/4 225/1/4 231/1/4
f 225/6/4 226/6/4 232/6/4
f 227/1/4 217/1/4 232/1/4
f 226/6/4 227/6/4 232/6/4
f 232/1/4 217/1/4 233/1/4
f 229/5/4 223/5/4 234/5/4
f 230/4/4 231/4/4 235/4/4
f 234/5/4 223/5/4 235/5/4
f 223/4/4 230/4/4 235/4/4
f 231/1/4 225/1/4 236/1/4
f 235/4/4 231/4/4 236/4/4
f 225/6/4 232/6/4 237/6/4
f 236/1/4 225/1/4 237/1/4
f 237/6/4 232/6/4 238/6/4
f 242/5/5 240/5/5 239/5/5
f 243/5/5 240/5/5 242/5/5
f 245/5/5 242/5/5 241/5/5
f 245/5/5 244/5/5 243/5/5
f 245/5/5 243/5/5 242/5/5
f 246/5/5 244/5/5 245/5/5
f 247/5/5 244/5/5 246/5/5
f 248/5/5 244/5/5 247/5/5
f 249/5/5 247/5/5 246/5/5
f 250/5/5 247/5/5 249/5/5
f 255/5/5 252/5/5 251/5/5
f 256/5/5 252/5/5 255/5/5
f 257/4/5 254/4/5 253/4/5
f 258/4/5 254/4/5 257/4/5
f 263/4/5 260/4/5 259/4/5
f 264/4/5 260/4/5 263/4/5
f 265/5/5 262/5/5 261/5/5
f 266/5/5 262/5/5 265/5/5
f 271/1/5 268/1/5 267/1/5
f 272/1/5 270/1/5 269/1/5
f 273/1/5 271/1/5 267/1/5
f 274/1/5 271/1/5 273/1/5
f 275/1/5 270/1/5 272/1/5
f 276/1/5 270/1/5 275/1/5
f 277/4/5 274/4/5 273/4/5
f 278/4/5 274/4/5 277/4/5
f 279/4/5 276/4/5 275/4/5
f 280/4/5 276/4/5 279/4/5
f 283/3/5 282/3/5 281/3/5
f 284/3/5 282/3/5 283/3/5
f 285/1/6 286/1/6 289/1/6
f 287/1/6 288/1/6 290/1/6
f 285/1/6 289/1/6 291/1/6
f 291/1/6 289/1/6 292/1/6
f 290/1/6 288/1/6 293/1/6
f 293/1/6 288/1/6 294/1/6
f 291/4/6 292/4/6 295/4/6
f 295/4/6 292/4/6 296/4/6
f 293/4/6 294/4/6 297/4/6
f 297/4/6 294/4/6 298/4/6
f 299/3/6 300/3/6 301/3/6
f 301/3/6 300/3/6 302/3/6
f 303/6/6 304/6/6 307/6/6
f 307/6/6 304/6/6 308/6/6
f 305/6/6 306/6/6 309/6/6
f 309/6/6 306/6/6 310/6/6
f 311/6/6 312/6/6 315/6/6
f 315/6/6 312/6/6 316/6/6
f 313/6/6 314/6/6 317/6/6
f 317/6/6 314/6/6 318/6/6
f 319/6/6 320/6/6 324/6/6
f 321/6/6 322/6/6 325/6/6
f 323/6/6 324/6/6 327/6/6
f 324/6/6 320/6/6 327/6/6
f 320/1/6 321/1/6 328/1/6
f 327/6/6 320/6/6 328/6/6
f 325/6/6 326/6/6 329/6/6
f 328/1/6 321/1/6 329/1/6
f 321/6/6 325/6/6 329/6/6
f 329/6/6 326/6/6 330/6/6
f 323/6/6 327/6/6 331/6/6
f 327/1/6 328/1/6 332/1/6
f 331/6/6 327/6/6 332/6/6
f 328/1/6 329/1/6 332/1/6
f 329/1/6 330/1/6 332/1/6
f 330/6/6 326/6/6 333/6/6
f 332/1/6 330/1/6 333/1/6
f 333/6/6 326/6/6 334/6/6
f 332/1/6 333/1/6 335/1/6
f 335/1/6 333/1/6 336/1/6
