# MagicaVoxel @ Ephtracy

# group
g obj_gravestone

# material
mtllib obj_gravestone.mtl
usemtl palette

# normals
vn -1 0 0
vn 1 0 0
vn 0 0 1
vn 0 0 -1
vn 0 -1 0
vn 0 1 0

# texcoords
vt 0.00195313 0.5
vt 0.00585938 0.5
vt 0.00976563 0.5
vt 0.0136719 0.5
vt 0.0175781 0.5

# verts
v -4 0 -1
v -4 0 -2
v -4 0 -3
v -4 0 -4
v -4 1 -1
v -4 1 -2
v -4 1 -3
v -4 1 -4
v -3 0 3
v -3 0 2
v -3 0 1
v -3 0 -0
v -3 0 -1
v -3 1 3
v -3 1 2
v -3 1 1
v -3 1 -0
v -3 1 -1
v -3 1 -3
v -3 1 -4
v -3 7 -3
v -3 7 -4
v -2 0 4
v -2 0 3
v -2 1 4
v -2 1 3
v -2 7 -3
v -2 7 -4
v -2 8 -3
v -2 8 -4
v 2 0 4
v 2 0 3
v 2 1 4
v 2 1 3
v 2 7 -3
v 2 7 -4
v 2 8 -3
v 2 8 -4
v 3 0 3
v 3 0 2
v 3 0 1
v 3 0 -0
v 3 0 -1
v 3 1 3
v 3 1 2
v 3 1 1
v 3 1 -0
v 3 1 -1
v 3 1 -3
v 3 1 -4
v 3 7 -3
v 3 7 -4
v 4 0 -1
v 4 0 -2
v 4 0 -3
v 4 0 -4
v 4 1 -1
v 4 1 -2
v 4 1 -3
v 4 1 -4
v -2 0 4
v -2 1 4
v 2 0 4
v 2 1 4
v -3 0 3
v -3 1 3
v -2 0 3
v -2 1 3
v 2 0 3
v 2 1 3
v 3 0 3
v 3 1 3
v -4 0 -1
v -4 1 -1
v -3 0 -1
v -3 1 -1
v 3 0 -1
v 3 1 -1
v 4 0 -1
v 4 1 -1
v -3 1 -3
v -3 7 -3
v -2 2 -3
v -2 3 -3
v -2 4 -3
v -2 5 -3
v -2 6 -3
v -2 7 -3
v -2 8 -3
v 2 2 -3
v 2 3 -3
v 2 4 -3
v 2 5 -3
v 2 6 -3
v 2 7 -3
v 2 8 -3
v 3 1 -3
v 3 7 -3
v -4 0 -4
v -4 1 -4
v -3 0 -4
v -3 1 -4
v -3 7 -4
v -2 2 -4
v -2 3 -4
v -2 4 -4
v -2 5 -4
v -2 6 -4
v -2 7 -4
v -2 8 -4
v 2 2 -4
v 2 3 -4
v 2 4 -4
v 2 5 -4
v 2 6 -4
v 2 7 -4
v 2 8 -4
v 3 0 -4
v 3 1 -4
v 3 7 -4
v 4 0 -4
v 4 1 -4
v -2 0 4
v 2 0 4
v -3 0 3
v -2 0 3
v 2 0 3
v 3 0 3
v -3 0 2
v 3 0 2
v -3 0 1
v 3 0 1
v -3 0 -0
v 3 0 -0
v -4 0 -1
v -3 0 -1
v 3 0 -1
v 4 0 -1
v -4 0 -2
v 4 0 -2
v -4 0 -3
v -3 0 -3
v 3 0 -3
v 4 0 -3
v -4 0 -4
v -3 0 -4
v 3 0 -4
v 4 0 -4
v -2 1 4
v 2 1 4
v -3 1 3
v -2 1 3
v 2 1 3
v 3 1 3
v -3 1 2
v 3 1 2
v -3 1 1
v 3 1 1
v -3 1 -0
v 3 1 -0
v -4 1 -1
v -3 1 -1
v 3 1 -1
v 4 1 -1
v -4 1 -2
v 4 1 -2
v -4 1 -3
v -3 1 -3
v 3 1 -3
v 4 1 -3
v -4 1 -4
v -3 1 -4
v 3 1 -4
v 4 1 -4
v -3 7 -3
v -2 7 -3
v 2 7 -3
v 3 7 -3
v -3 7 -4
v -2 7 -4
v 2 7 -4
v 3 7 -4
v -2 8 -3
v 2 8 -3
v -2 8 -4
v 2 8 -4

# faces
f 5/2/1 2/2/1 1/2/1
f 6/3/1 3/3/1 2/3/1
f 6/2/1 2/2/1 5/2/1
f 7/2/1 4/2/1 3/2/1
f 7/3/1 3/3/1 6/3/1
f 8/2/1 4/2/1 7/2/1
f 14/2/1 10/2/1 9/2/1
f 15/3/1 11/3/1 10/3/1
f 15/2/1 10/2/1 14/2/1
f 16/2/1 12/2/1 11/2/1
f 16/3/1 11/3/1 15/3/1
f 17/3/1 13/3/1 12/3/1
f 17/2/1 12/2/1 16/2/1
f 18/3/1 13/3/1 17/3/1
f 21/1/1 20/1/1 19/1/1
f 22/1/1 20/1/1 21/1/1
f 25/3/1 24/3/1 23/3/1
f 26/3/1 24/3/1 25/3/1
f 29/1/1 28/1/1 27/1/1
f 30/1/1 28/1/1 29/1/1
f 31/3/2 32/3/2 33/3/2
f 33/3/2 32/3/2 34/3/2
f 35/1/2 36/1/2 37/1/2
f 37/1/2 36/1/2 38/1/2
f 39/2/2 40/2/2 44/2/2
f 40/3/2 41/3/2 45/3/2
f 44/2/2 40/2/2 45/2/2
f 41/2/2 42/2/2 46/2/2
f 45/3/2 41/3/2 46/3/2
f 42/3/2 43/3/2 47/3/2
f 46/2/2 42/2/2 47/2/2
f 47/3/2 43/3/2 48/3/2
f 49/1/2 50/1/2 51/1/2
f 51/1/2 50/1/2 52/1/2
f 53/2/2 54/2/2 57/2/2
f 54/3/2 55/3/2 58/3/2
f 57/2/2 54/2/2 58/2/2
f 55/2/2 56/2/2 59/2/2
f 58/3/2 55/3/2 59/3/2
f 59/2/2 56/2/2 60/2/2
f 63/3/3 62/3/3 61/3/3
f 64/3/3 62/3/3 63/3/3
f 67/2/3 66/2/3 65/2/3
f 68/2/3 66/2/3 67/2/3
f 71/2/3 70/2/3 69/2/3
f 72/2/3 70/2/3 71/2/3
f 75/2/3 74/2/3 73/2/3
f 76/2/3 74/2/3 75/2/3
f 79/2/3 78/2/3 77/2/3
f 80/2/3 78/2/3 79/2/3
f 83/1/3 82/1/3 81/1/3
f 84/1/3 82/1/3 83/1/3
f 85/1/3 82/1/3 84/1/3
f 86/1/3 82/1/3 85/1/3
f 87/1/3 82/1/3 86/1/3
f 88/1/3 82/1/3 87/1/3
f 90/1/3 83/1/3 81/1/3
f 90/4/3 84/4/3 83/4/3
f 91/5/3 85/5/3 84/5/3
f 91/4/3 84/4/3 90/4/3
f 92/4/3 86/4/3 85/4/3
f 92/5/3 85/5/3 91/5/3
f 93/5/3 87/5/3 86/5/3
f 93/4/3 86/4/3 92/4/3
f 94/1/3 89/1/3 88/1/3
f 94/5/3 87/5/3 93/5/3
f 94/1/3 88/1/3 87/1/3
f 95/1/3 89/1/3 94/1/3
f 96/1/3 89/1/3 95/1/3
f 97/1/3 93/1/3 92/1/3
f 97/1/3 92/1/3 91/1/3
f 97/1/3 95/1/3 94/1/3
f 97/1/3 94/1/3 93/1/3
f 97/1/3 91/1/3 90/1/3
f 97/1/3 90/1/3 81/1/3
f 98/1/3 95/1/3 97/1/3
f 99/2/4 100/2/4 101/2/4
f 101/2/4 100/2/4 102/2/4
f 101/1/4 102/1/4 104/1/4
f 102/1/4 103/1/4 104/1/4
f 104/1/4 103/1/4 105/1/4
f 105/1/4 103/1/4 106/1/4
f 106/1/4 103/1/4 107/1/4
f 107/1/4 103/1/4 108/1/4
f 108/1/4 103/1/4 109/1/4
f 101/1/4 104/1/4 111/1/4
f 104/4/4 105/4/4 111/4/4
f 105/5/4 106/5/4 112/5/4
f 111/4/4 105/4/4 112/4/4
f 106/4/4 107/4/4 113/4/4
f 112/5/4 106/5/4 113/5/4
f 107/5/4 108/5/4 114/5/4
f 113/4/4 107/4/4 114/4/4
f 109/1/4 110/1/4 115/1/4
f 114/5/4 108/5/4 115/5/4
f 108/1/4 109/1/4 115/1/4
f 115/1/4 110/1/4 116/1/4
f 116/1/4 110/1/4 117/1/4
f 113/1/4 114/1/4 118/1/4
f 112/1/4 113/1/4 118/1/4
f 115/1/4 116/1/4 118/1/4
f 114/1/4 115/1/4 118/1/4
f 111/1/4 112/1/4 118/1/4
f 101/1/4 111/1/4 118/1/4
f 118/1/4 116/1/4 119/1/4
f 119/1/4 116/1/4 120/1/4
f 118/2/4 119/2/4 121/2/4
f 121/2/4 119/2/4 122/2/4
f 126/3/5 124/3/5 123/3/5
f 127/3/5 124/3/5 126/3/5
f 129/2/5 126/2/5 125/2/5
f 129/2/5 128/2/5 127/2/5
f 129/2/5 127/2/5 126/2/5
f 130/2/5 128/2/5 129/2/5
f 131/3/5 130/3/5 129/3/5
f 132/3/5 130/3/5 131/3/5
f 133/2/5 132/2/5 131/2/5
f 134/2/5 132/2/5 133/2/5
f 136/3/5 134/3/5 133/3/5
f 137/3/5 134/3/5 136/3/5
f 139/2/5 137/2/5 136/2/5
f 139/2/5 138/2/5 137/2/5
f 139/2/5 136/2/5 135/2/5
f 140/2/5 138/2/5 139/2/5
f 141/3/5 140/3/5 139/3/5
f 142/3/5 140/3/5 141/3/5
f 143/3/5 140/3/5 142/3/5
f 144/3/5 140/3/5 143/3/5
f 145/2/5 142/2/5 141/2/5
f 146/1/5 143/1/5 142/1/5
f 146/2/5 142/2/5 145/2/5
f 147/2/5 144/2/5 143/2/5
f 147/1/5 143/1/5 146/1/5
f 148/2/5 144/2/5 147/2/5
f 149/3/6 150/3/6 152/3/6
f 152/3/6 150/3/6 153/3/6
f 151/2/6 152/2/6 155/2/6
f 153/2/6 154/2/6 155/2/6
f 152/2/6 153/2/6 155/2/6
f 155/2/6 154/2/6 156/2/6
f 155/3/6 156/3/6 157/3/6
f 157/3/6 156/3/6 158/3/6
f 157/2/6 158/2/6 159/2/6
f 159/2/6 158/2/6 160/2/6
f 159/3/6 160/3/6 162/3/6
f 162/3/6 160/3/6 163/3/6
f 162/2/6 163/2/6 165/2/6
f 163/2/6 164/2/6 165/2/6
f 161/2/6 162/2/6 165/2/6
f 165/2/6 164/2/6 166/2/6
f 165/3/6 166/3/6 167/3/6
f 167/3/6 166/3/6 168/3/6
f 168/3/6 166/3/6 169/3/6
f 169/3/6 166/3/6 170/3/6
f 167/2/6 168/2/6 171/2/6
f 171/2/6 168/2/6 172/2/6
f 169/2/6 170/2/6 173/2/6
f 173/2/6 170/2/6 174/2/6
f 175/1/6 176/1/6 179/1/6
f 179/1/6 176/1/6 180/1/6
f 177/1/6 178/1/6 181/1/6
f 181/1/6 178/1/6 182/1/6
f 183/1/6 184/1/6 185/1/6
f 185/1/6 184/1/6 186/1/6
