# MagicaVoxel @ Ephtracy

# group
g obj_fence

# material
mtllib obj_fence.mtl
usemtl palette

# normals
vn -1 0 0
vn 1 0 0
vn 0 0 1
vn 0 0 -1
vn 0 -1 0
vn 0 1 0

# texcoords
vt 0.0644531 0.5
vt 0.0683594 0.5
vt 0.0722656 0.5

# verts
v -4 0 1
v -4 0 -0
v -4 0 -1
v -4 4 1
v -4 4 -0
v -4 5 -0
v -4 5 -1
v 2 0 1
v 2 0 -0
v 2 0 -1
v 2 1 -0
v 2 1 -1
v 2 2 -0
v 2 2 -1
v 2 4 1
v 2 4 -0
v 2 4 -1
v 3 4 -0
v 3 4 -1
v 3 5 -0
v 3 5 -1
v -3 4 -0
v -3 4 -1
v -3 5 -0
v -3 5 -1
v -2 0 1
v -2 0 -0
v -2 0 -1
v -2 1 -0
v -2 1 -1
v -2 2 -0
v -2 2 -1
v -2 4 1
v -2 4 -0
v -2 4 -1
v 4 0 1
v 4 0 -0
v 4 0 -1
v 4 4 1
v 4 4 -0
v 4 5 -0
v 4 5 -1
v -4 0 1
v -4 4 1
v -3 0 1
v -3 4 1
v -2 0 1
v -2 4 1
v 2 0 1
v 2 4 1
v 3 0 1
v 3 4 1
v 4 0 1
v 4 4 1
v -4 4 -0
v -4 5 -0
v -3 4 -0
v -3 5 -0
v -2 1 -0
v -2 2 -0
v 2 1 -0
v 2 2 -0
v 3 4 -0
v 3 5 -0
v 4 4 -0
v 4 5 -0
v -4 0 -1
v -4 5 -1
v -3 0 -1
v -3 4 -1
v -3 5 -1
v -2 0 -1
v -2 1 -1
v -2 2 -1
v -2 4 -1
v 2 0 -1
v 2 1 -1
v 2 2 -1
v 2 4 -1
v 3 0 -1
v 3 4 -1
v 3 5 -1
v 4 0 -1
v 4 5 -1
v -4 0 1
v -3 0 1
v -2 0 1
v 2 0 1
v 3 0 1
v 4 0 1
v -4 0 -0
v -3 0 -0
v -2 0 -0
v 2 0 -0
v 3 0 -0
v 4 0 -0
v -4 0 -1
v -3 0 -1
v -2 0 -1
v 2 0 -1
v 3 0 -1
v 4 0 -1
v -2 1 -0
v 2 1 -0
v -2 1 -1
v 2 1 -1
v -2 2 -0
v 2 2 -0
v -2 2 -1
v 2 2 -1
v -4 4 1
v -3 4 1
v -2 4 1
v 2 4 1
v 3 4 1
v 4 4 1
v -4 4 -0
v -3 4 -0
v -2 4 -0
v 2 4 -0
v 3 4 -0
v 4 4 -0
v -3 4 -1
v -2 4 -1
v 2 4 -1
v 3 4 -1
v -4 5 -0
v -3 5 -0
v 3 5 -0
v 4 5 -0
v -4 5 -1
v -3 5 -1
v 3 5 -1
v 4 5 -1

# faces
f 4/1/1 2/1/1 1/1/1
f 5/2/1 3/2/1 2/2/1
f 5/1/1 2/1/1 4/1/1
f 6/2/1 3/2/1 5/2/1
f 7/2/1 3/2/1 6/2/1
f 11/2/1 9/2/1 8/2/1
f 11/1/1 10/1/1 9/1/1
f 12/1/1 10/1/1 11/1/1
f 13/2/1 11/2/1 8/2/1
f 15/2/1 13/2/1 8/2/1
f 16/1/1 14/1/1 13/1/1
f 16/2/1 13/2/1 15/2/1
f 17/1/1 14/1/1 16/1/1
f 20/2/1 19/2/1 18/2/1
f 21/2/1 19/2/1 20/2/1
f 22/2/2 23/2/2 24/2/2
f 24/2/2 23/2/2 25/2/2
f 26/2/2 27/2/2 29/2/2
f 27/1/2 28/1/2 29/1/2
f 29/1/2 28/1/2 30/1/2
f 26/2/2 29/2/2 31/2/2
f 26/2/2 31/2/2 33/2/2
f 31/1/2 32/1/2 34/1/2
f 33/2/2 31/2/2 34/2/2
f 34/1/2 32/1/2 35/1/2
f 36/1/2 37/1/2 39/1/2
f 37/2/2 38/2/2 40/2/2
f 39/1/2 37/1/2 40/1/2
f 40/2/2 38/2/2 41/2/2
f 41/2/2 38/2/2 42/2/2
f 45/1/3 44/1/3 43/1/3
f 46/1/3 44/1/3 45/1/3
f 47/2/3 46/2/3 45/2/3
f 48/2/3 46/2/3 47/2/3
f 51/2/3 50/2/3 49/2/3
f 52/2/3 50/2/3 51/2/3
f 53/1/3 52/1/3 51/1/3
f 54/1/3 52/1/3 53/1/3
f 57/2/3 56/2/3 55/2/3
f 58/2/3 56/2/3 57/2/3
f 61/3/3 60/3/3 59/3/3
f 62/3/3 60/3/3 61/3/3
f 65/2/3 64/2/3 63/2/3
f 66/2/3 64/2/3 65/2/3
f 67/2/4 68/2/4 69/2/4
f 69/2/4 68/2/4 70/2/4
f 70/2/4 68/2/4 71/2/4
f 69/1/4 70/1/4 72/1/4
f 72/1/4 70/1/4 73/1/4
f 73/1/4 70/1/4 74/1/4
f 74/1/4 70/1/4 75/1/4
f 73/3/4 74/3/4 77/3/4
f 77/3/4 74/3/4 78/3/4
f 76/1/4 77/1/4 80/1/4
f 78/1/4 79/1/4 80/1/4
f 77/1/4 78/1/4 80/1/4
f 80/1/4 79/1/4 81/1/4
f 80/2/4 81/2/4 83/2/4
f 81/2/4 82/2/4 83/2/4
f 83/2/4 82/2/4 84/2/4
f 91/1/5 86/1/5 85/1/5
f 92/2/5 87/2/5 86/2/5
f 92/1/5 86/1/5 91/1/5
f 93/2/5 87/2/5 92/2/5
f 94/2/5 89/2/5 88/2/5
f 95/1/5 90/1/5 89/1/5
f 95/2/5 89/2/5 94/2/5
f 96/1/5 90/1/5 95/1/5
f 97/2/5 92/2/5 91/2/5
f 98/1/5 93/1/5 92/1/5
f 98/2/5 92/2/5 97/2/5
f 99/1/5 93/1/5 98/1/5
f 100/1/5 95/1/5 94/1/5
f 101/2/5 96/2/5 95/2/5
f 101/1/5 95/1/5 100/1/5
f 102/2/5 96/2/5 101/2/5
f 105/3/5 104/3/5 103/3/5
f 106/3/5 104/3/5 105/3/5
f 107/3/6 108/3/6 109/3/6
f 109/3/6 108/3/6 110/3/6
f 111/1/6 112/1/6 117/1/6
f 112/2/6 113/2/6 118/2/6
f 117/1/6 112/1/6 118/1/6
f 118/2/6 113/2/6 119/2/6
f 114/2/6 115/2/6 120/2/6
f 115/1/6 116/1/6 121/1/6
f 120/2/6 115/2/6 121/2/6
f 121/1/6 116/1/6 122/1/6
f 118/1/6 119/1/6 123/1/6
f 123/1/6 119/1/6 124/1/6
f 120/1/6 121/1/6 125/1/6
f 125/1/6 121/1/6 126/1/6
f 127/2/6 128/2/6 131/2/6
f 131/2/6 128/2/6 132/2/6
f 129/2/6 130/2/6 133/2/6
f 133/2/6 130/2/6 134/2/6
