# MagicaVoxel @ Ephtracy

# group
g obj_grass

# material
mtllib obj_grass.mtl
usemtl palette

# normals
vn -1 0 0
vn 1 0 0
vn 0 0 1
vn 0 0 -1
vn 0 -1 0
vn 0 1 0

# texcoords
vt 0.00195313 0.5
vt 0.00585938 0.5
vt 0.00976563 0.5

# verts
v -8 0 8
v -8 0 -8
v -8 1 8
v -8 1 -8
v -6 1 7
v -6 1 6
v -6 1 -1
v -6 1 -2
v -6 1 -5
v -6 1 -6
v -6 2 -1
v -6 2 -2
v -6 3 7
v -6 3 6
v -6 3 -5
v -6 3 -6
v -4 1 4
v -4 1 3
v -4 1 -4
v -4 1 -5
v -4 2 -4
v -4 2 -5
v -4 3 4
v -4 3 3
v -2 1 6
v -2 1 5
v -2 2 6
v -2 2 5
v 1 1 1
v 1 1 -0
v 1 1 -6
v 1 1 -7
v 1 2 1
v 1 2 -0
v 1 2 -6
v 1 2 -7
v 3 1 -3
v 3 1 -4
v 3 3 -3
v 3 3 -4
v 5 1 5
v 5 1 4
v 5 1 -1
v 5 1 -2
v 5 2 5
v 5 2 4
v 5 2 -1
v 5 2 -2
v 6 1 -5
v 6 1 -6
v 6 3 -5
v 6 3 -6
v -5 1 7
v -5 1 6
v -5 1 -1
v -5 1 -2
v -5 1 -5
v -5 1 -6
v -5 2 -1
v -5 2 -2
v -5 3 7
v -5 3 6
v -5 3 -5
v -5 3 -6
v -3 1 4
v -3 1 3
v -3 1 -4
v -3 1 -5
v -3 2 -4
v -3 2 -5
v -3 3 4
v -3 3 3
v -1 1 6
v -1 1 5
v -1 2 6
v -1 2 5
v 2 1 1
v 2 1 -0
v 2 1 -6
v 2 1 -7
v 2 2 1
v 2 2 -0
v 2 2 -6
v 2 2 -7
v 4 1 -3
v 4 1 -4
v 4 3 -3
v 4 3 -4
v 6 1 5
v 6 1 4
v 6 1 -1
v 6 1 -2
v 6 2 5
v 6 2 4
v 6 2 -1
v 6 2 -2
v 7 1 -5
v 7 1 -6
v 7 3 -5
v 7 3 -6
v 8 0 8
v 8 0 -2
v 8 0 -3
v 8 0 -4
v 8 0 -6
v 8 0 -8
v 8 1 8
v 8 1 -2
v 8 1 -3
v 8 1 -4
v 8 1 -6
v 8 1 -8
v -8 0 8
v -8 1 8
v -7 0 8
v -7 1 8
v -4 0 8
v -4 1 8
v 8 0 8
v 8 1 8
v -6 1 7
v -6 3 7
v -5 1 7
v -5 3 7
v -2 1 6
v -2 2 6
v -1 1 6
v -1 2 6
v 5 1 5
v 5 2 5
v 6 1 5
v 6 2 5
v -4 1 4
v -4 3 4
v -3 1 4
v -3 3 4
v 1 1 1
v 1 2 1
v 2 1 1
v 2 2 1
v -6 1 -1
v -6 2 -1
v -5 1 -1
v -5 2 -1
v 5 1 -1
v 5 2 -1
v 6 1 -1
v 6 2 -1
v 3 1 -3
v 3 3 -3
v 4 1 -3
v 4 3 -3
v -4 1 -4
v -4 2 -4
v -3 1 -4
v -3 2 -4
v -6 1 -5
v -6 3 -5
v -5 1 -5
v -5 3 -5
v 6 1 -5
v 6 3 -5
v 7 1 -5
v 7 3 -5
v 1 1 -6
v 1 2 -6
v 2 1 -6
v 2 2 -6
v -6 1 6
v -6 3 6
v -5 1 6
v -5 3 6
v -2 1 5
v -2 2 5
v -1 1 5
v -1 2 5
v 5 1 4
v 5 2 4
v 6 1 4
v 6 2 4
v -4 1 3
v -4 3 3
v -3 1 3
v -3 3 3
v 1 1 -0
v 1 2 -0
v 2 1 -0
v 2 2 -0
v -6 1 -2
v -6 2 -2
v -5 1 -2
v -5 2 -2
v 5 1 -2
v 5 2 -2
v 6 1 -2
v 6 2 -2
v 3 1 -4
v 3 3 -4
v 4 1 -4
v 4 3 -4
v -4 1 -5
v -4 2 -5
v -3 1 -5
v -3 2 -5
v -6 1 -6
v -6 3 -6
v -5 1 -6
v -5 3 -6
v 6 1 -6
v 6 3 -6
v 7 1 -6
v 7 3 -6
v 1 1 -7
v 1 2 -7
v 2 1 -7
v 2 2 -7
v -8 0 -8
v -8 1 -8
v 0 0 -8
v 0 1 -8
v 3 0 -8
v 3 1 -8
v 6 0 -8
v 6 1 -8
v 7 0 -8
v 7 1 -8
v 8 0 -8
v 8 1 -8
v -8 0 8
v -7 0 8
v -4 0 8
v 8 0 8
v -7 0 7
v -5 0 7
v -3 0 7
v -1 0 7
v -7 0 6
v -6 0 6
v -5 0 6
v -4 0 6
v -2 0 6
v -1 0 6
v 1 0 6
v 4 0 6
v 7 0 6
v -7 0 5
v -6 0 5
v -5 0 5
v -3 0 5
v -2 0 5
v -1 0 5
v 0 0 5
v 1 0 5
v 3 0 5
v 4 0 5
v 5 0 5
v 6 0 5
v -4 0 4
v -3 0 4
v -2 0 4
v 0 0 4
v 3 0 4
v 5 0 4
v 6 0 4
v 7 0 4
v -5 0 3
v -4 0 3
v -3 0 3
v -2 0 3
v 5 0 3
v 6 0 3
v 1 0 2
v 2 0 2
v -6 0 1
v -5 0 1
v 0 0 1
v 1 0 1
v 2 0 1
v 3 0 1
v 4 0 1
v 7 0 1
v -7 0 -0
v -6 0 -0
v -5 0 -0
v -4 0 -0
v 1 0 -0
v 2 0 -0
v 3 0 -0
v -6 0 -1
v -5 0 -1
v 0 0 -1
v 2 0 -1
v 3 0 -1
v 4 0 -1
v 5 0 -1
v 6 0 -1
v -6 0 -2
v -5 0 -2
v -4 0 -2
v -3 0 -2
v 0 0 -2
v 3 0 -2
v 5 0 -2
v 6 0 -2
v 7 0 -2
v 8 0 -2
v -3 0 -3
v -2 0 -3
v 3 0 -3
v 4 0 -3
v 7 0 -3
v 8 0 -3
v -4 0 -4
v -3 0 -4
v 0 0 -4
v 1 0 -4
v 3 0 -4
v 4 0 -4
v 7 0 -4
v 8 0 -4
v -7 0 -5
v -5 0 -5
v -4 0 -5
v -3 0 -5
v 6 0 -5
v 7 0 -5
v -6 0 -6
v -5 0 -6
v -4 0 -6
v -2 0 -6
v -1 0 -6
v 1 0 -6
v 2 0 -6
v 6 0 -6
v 7 0 -6
v 8 0 -6
v -6 0 -7
v -4 0 -7
v -1 0 -7
v 0 0 -7
v 1 0 -7
v 2 0 -7
v 3 0 -7
v 6 0 -7
v -8 0 -8
v 0 0 -8
v 3 0 -8
v 6 0 -8
v 7 0 -8
v 8 0 -8
v -8 1 8
v -7 1 8
v -4 1 8
v 8 1 8
v -7 1 7
v -6 1 7
v -5 1 7
v -3 1 7
v -1 1 7
v -7 1 6
v -6 1 6
v -5 1 6
v -4 1 6
v -2 1 6
v -1 1 6
v 1 1 6
v 4 1 6
v 7 1 6
v -7 1 5
v -6 1 5
v -5 1 5
v -3 1 5
v -2 1 5
v -1 1 5
v 0 1 5
v 1 1 5
v 3 1 5
v 4 1 5
v 5 1 5
v 6 1 5
v -4 1 4
v -3 1 4
v -2 1 4
v 0 1 4
v 3 1 4
v 5 1 4
v 6 1 4
v 7 1 4
v -5 1 3
v -4 1 3
v -3 1 3
v -2 1 3
v 5 1 3
v 6 1 3
v 1 1 2
v 2 1 2
v -6 1 1
v -5 1 1
v 0 1 1
v 1 1 1
v 2 1 1
v 3 1 1
v 4 1 1
v 7 1 1
v -7 1 -0
v -6 1 -0
v -5 1 -0
v -4 1 -0
v 1 1 -0
v 2 1 -0
v 3 1 -0
v -6 1 -1
v -5 1 -1
v 0 1 -1
v 2 1 -1
v 3 1 -1
v 4 1 -1
v 5 1 -1
v 6 1 -1
v -6 1 -2
v -5 1 -2
v -4 1 -2
v -3 1 -2
v 0 1 -2
v 3 1 -2
v 5 1 -2
v 6 1 -2
v 7 1 -2
v 8 1 -2
v -3 1 -3
v -2 1 -3
v 3 1 -3
v 4 1 -3
v 7 1 -3
v 8 1 -3
v -4 1 -4
v -3 1 -4
v 0 1 -4
v 1 1 -4
v 3 1 -4
v 4 1 -4
v 7 1 -4
v 8 1 -4
v -7 1 -5
v -6 1 -5
v -5 1 -5
v -4 1 -5
v -3 1 -5
v 6 1 -5
v 7 1 -5
v -6 1 -6
v -5 1 -6
v -4 1 -6
v -2 1 -6
v -1 1 -6
v 1 1 -6
v 2 1 -6
v 6 1 -6
v 7 1 -6
v 8 1 -6
v -6 1 -7
v -4 1 -7
v -1 1 -7
v 0 1 -7
v 1 1 -7
v 2 1 -7
v 3 1 -7
v 6 1 -7
v -8 1 -8
v 0 1 -8
v 3 1 -8
v 6 1 -8
v 7 1 -8
v 8 1 -8
v -2 2 6
v -1 2 6
v -2 2 5
v -1 2 5
v 5 2 5
v 6 2 5
v 5 2 4
v 6 2 4
v 1 2 1
v 2 2 1
v 1 2 -0
v 2 2 -0
v -6 2 -1
v -5 2 -1
v 5 2 -1
v 6 2 -1
v -6 2 -2
v -5 2 -2
v 5 2 -2
v 6 2 -2
v -4 2 -4
v -3 2 -4
v -4 2 -5
v -3 2 -5
v 1 2 -6
v 2 2 -6
v 1 2 -7
v 2 2 -7
v -6 3 7
v -5 3 7
v -6 3 6
v -5 3 6
v -4 3 4
v -3 3 4
v -4 3 3
v -3 3 3
v 3 3 -3
v 4 3 -3
v 3 3 -4
v 4 3 -4
v -6 3 -5
v -5 3 -5
v 6 3 -5
v 7 3 -5
v -6 3 -6
v -5 3 -6
v 6 3 -6
v 7 3 -6

# faces
f 3/1/1 2/1/1 1/1/1
f 4/1/1 2/1/1 3/1/1
f 11/2/1 8/2/1 7/2/1
f 12/2/1 8/2/1 11/2/1
f 13/2/1 6/2/1 5/2/1
f 14/2/1 6/2/1 13/2/1
f 15/2/1 10/2/1 9/2/1
f 16/2/1 10/2/1 15/2/1
f 21/2/1 20/2/1 19/2/1
f 22/2/1 20/2/1 21/2/1
f 23/2/1 18/2/1 17/2/1
f 24/2/1 18/2/1 23/2/1
f 27/2/1 26/2/1 25/2/1
f 28/2/1 26/2/1 27/2/1
f 33/2/1 30/2/1 29/2/1
f 34/2/1 30/2/1 33/2/1
f 35/2/1 32/2/1 31/2/1
f 36/2/1 32/2/1 35/2/1
f 39/2/1 38/2/1 37/2/1
f 40/2/1 38/2/1 39/2/1
f 45/2/1 42/2/1 41/2/1
f 46/2/1 42/2/1 45/2/1
f 47/2/1 44/2/1 43/2/1
f 48/2/1 44/2/1 47/2/1
f 51/2/1 50/2/1 49/2/1
f 52/2/1 50/2/1 51/2/1
f 55/2/2 56/2/2 59/2/2
f 59/2/2 56/2/2 60/2/2
f 53/2/2 54/2/2 61/2/2
f 61/2/2 54/2/2 62/2/2
f 57/2/2 58/2/2 63/2/2
f 63/2/2 58/2/2 64/2/2
f 67/2/2 68/2/2 69/2/2
f 69/2/2 68/2/2 70/2/2
f 65/2/2 66/2/2 71/2/2
f 71/2/2 66/2/2 72/2/2
f 73/2/2 74/2/2 75/2/2
f 75/2/2 74/2/2 76/2/2
f 77/2/2 78/2/2 81/2/2
f 81/2/2 78/2/2 82/2/2
f 79/2/2 80/2/2 83/2/2
f 83/2/2 80/2/2 84/2/2
f 85/2/2 86/2/2 87/2/2
f 87/2/2 86/2/2 88/2/2
f 89/2/2 90/2/2 93/2/2
f 93/2/2 90/2/2 94/2/2
f 91/2/2 92/2/2 95/2/2
f 95/2/2 92/2/2 96/2/2
f 97/2/2 98/2/2 99/2/2
f 99/2/2 98/2/2 100/2/2
f 101/1/2 102/1/2 107/1/2
f 102/3/2 103/3/2 108/3/2
f 107/1/2 102/1/2 108/1/2
f 103/1/2 104/1/2 109/1/2
f 108/3/2 103/3/2 109/3/2
f 104/3/2 105/3/2 110/3/2
f 109/1/2 104/1/2 110/1/2
f 105/1/2 106/1/2 111/1/2
f 110/3/2 105/3/2 111/3/2
f 111/1/2 106/1/2 112/1/2
f 115/1/3 114/1/3 113/1/3
f 116/1/3 114/1/3 115/1/3
f 117/3/3 116/3/3 115/3/3
f 118/3/3 116/3/3 117/3/3
f 119/1/3 118/1/3 117/1/3
f 120/1/3 118/1/3 119/1/3
f 123/2/3 122/2/3 121/2/3
f 124/2/3 122/2/3 123/2/3
f 127/2/3 126/2/3 125/2/3
f 128/2/3 126/2/3 127/2/3
f 131/2/3 130/2/3 129/2/3
f 132/2/3 130/2/3 131/2/3
f 135/2/3 134/2/3 133/2/3
f 136/2/3 134/2/3 135/2/3
f 139/2/3 138/2/3 137/2/3
f 140/2/3 138/2/3 139/2/3
f 143/2/3 142/2/3 141/2/3
f 144/2/3 142/2/3 143/2/3
f 147/2/3 146/2/3 145/2/3
f 148/2/3 146/2/3 147/2/3
f 151/2/3 150/2/3 149/2/3
f 152/2/3 150/2/3 151/2/3
f 155/2/3 154/2/3 153/2/3
f 156/2/3 154/2/3 155/2/3
f 159/2/3 158/2/3 157/2/3
f 160/2/3 158/2/3 159/2/3
f 163/2/3 162/2/3 161/2/3
f 164/2/3 162/2/3 163/2/3
f 167/2/3 166/2/3 165/2/3
f 168/2/3 166/2/3 167/2/3
f 169/2/4 170/2/4 171/2/4
f 171/2/4 170/2/4 172/2/4
f 173/2/4 174/2/4 175/2/4
f 175/2/4 174/2/4 176/2/4
f 177/2/4 178/2/4 179/2/4
f 179/2/4 178/2/4 180/2/4
f 181/2/4 182/2/4 183/2/4
f 183/2/4 182/2/4 184/2/4
f 185/2/4 186/2/4 187/2/4
f 187/2/4 186/2/4 188/2/4
f 189/2/4 190/2/4 191/2/4
f 191/2/4 190/2/4 192/2/4
f 193/2/4 194/2/4 195/2/4
f 195/2/4 194/2/4 196/2/4
f 197/2/4 198/2/4 199/2/4
f 199/2/4 198/2/4 200/2/4
f 201/2/4 202/2/4 203/2/4
f 203/2/4 202/2/4 204/2/4
f 205/2/4 206/2/4 207/2/4
f 207/2/4 206/2/4 208/2/4
f 209/2/4 210/2/4 211/2/4
f 211/2/4 210/2/4 212/2/4
f 213/2/4 214/2/4 215/2/4
f 215/2/4 214/2/4 216/2/4
f 217/1/4 218/1/4 219/1/4
f 219/1/4 218/1/4 220/1/4
f 219/3/4 220/3/4 221/3/4
f 221/3/4 220/3/4 222/3/4
f 221/1/4 222/1/4 223/1/4
f 223/1/4 222/1/4 224/1/4
f 223/3/4 224/3/4 225/3/4
f 225/3/4 224/3/4 226/3/4
f 225/1/4 226/1/4 227/1/4
f 227/1/4 226/1/4 228/1/4
f 233/1/5 230/1/5 229/1/5
f 233/3/5 231/3/5 230/3/5
f 234/3/5 231/3/5 233/3/5
f 235/1/5 232/1/5 231/1/5
f 236/1/5 232/1/5 235/1/5
f 237/1/5 233/1/5 229/1/5
f 237/1/5 234/1/5 233/1/5
f 238/1/5 234/1/5 237/1/5
f 239/3/5 231/3/5 234/3/5
f 239/1/5 234/1/5 238/1/5
f 240/1/5 235/1/5 231/1/5
f 240/3/5 231/3/5 239/3/5
f 241/3/5 236/3/5 235/3/5
f 242/1/5 232/1/5 236/1/5
f 242/3/5 236/3/5 241/3/5
f 243/1/5 232/1/5 242/1/5
f 244/1/5 232/1/5 243/1/5
f 245/1/5 232/1/5 244/1/5
f 246/3/5 238/3/5 237/3/5
f 246/1/5 237/1/5 229/1/5
f 247/1/5 239/1/5 238/1/5
f 247/3/5 238/3/5 246/3/5
f 247/1/5 240/1/5 239/1/5
f 248/1/5 240/1/5 247/1/5
f 249/3/5 241/3/5 235/3/5
f 249/1/5 240/1/5 248/1/5
f 249/1/5 235/1/5 240/1/5
f 250/1/5 242/1/5 241/1/5
f 250/3/5 241/3/5 249/3/5
f 251/3/5 243/3/5 242/3/5
f 251/1/5 242/1/5 250/1/5
f 252/3/5 243/3/5 251/3/5
f 253/1/5 244/1/5 243/1/5
f 253/3/5 243/3/5 252/3/5
f 254/1/5 244/1/5 253/1/5
f 255/3/5 245/3/5 244/3/5
f 255/1/5 244/1/5 254/1/5
f 256/3/5 245/3/5 255/3/5
f 257/3/5 245/3/5 256/3/5
f 258/3/5 252/3/5 251/3/5
f 258/3/5 249/3/5 248/3/5
f 258/3/5 250/3/5 249/3/5
f 258/3/5 251/3/5 250/3/5
f 259/3/5 252/3/5 258/3/5
f 260/3/5 252/3/5 259/3/5
f 261/1/5 254/1/5 253/1/5
f 261/3/5 252/3/5 260/3/5
f 261/1/5 253/1/5 252/1/5
f 262/3/5 256/3/5 255/3/5
f 262/1/5 254/1/5 261/1/5
f 262/3/5 255/3/5 254/3/5
f 263/1/5 257/1/5 256/1/5
f 263/3/5 256/3/5 262/3/5
f 264/3/5 245/3/5 257/3/5
f 264/1/5 257/1/5 263/1/5
f 265/1/5 232/1/5 245/1/5
f 265/3/5 245/3/5 264/3/5
f 266/1/5 248/1/5 247/1/5
f 266/1/5 247/1/5 246/1/5
f 266/3/5 258/3/5 248/3/5
f 267/1/5 259/1/5 258/1/5
f 267/3/5 258/3/5 266/3/5
f 268/3/5 260/3/5 259/3/5
f 268/1/5 259/1/5 267/1/5
f 269/1/5 263/1/5 262/1/5
f 269/3/5 260/3/5 268/3/5
f 269/1/5 262/1/5 261/1/5
f 269/1/5 261/1/5 260/1/5
f 270/3/5 264/3/5 263/3/5
f 270/1/5 263/1/5 269/1/5
f 271/1/5 265/1/5 264/1/5
f 271/3/5 264/3/5 270/3/5
f 272/1/5 269/1/5 268/1/5
f 272/1/5 270/1/5 269/1/5
f 272/1/5 271/1/5 270/1/5
f 272/1/5 267/1/5 266/1/5
f 272/1/5 268/1/5 267/1/5
f 273/1/5 271/1/5 272/1/5
f 274/1/5 266/1/5 246/1/5
f 274/1/5 272/1/5 266/1/5
f 275/1/5 272/1/5 274/1/5
f 276/1/5 272/1/5 275/1/5
f 277/3/5 273/3/5 272/3/5
f 277/1/5 272/1/5 276/1/5
f 278/1/5 271/1/5 273/1/5
f 278/3/5 273/3/5 277/3/5
f 279/1/5 271/1/5 278/1/5
f 280/1/5 271/1/5 279/1/5
f 281/1/5 265/1/5 271/1/5
f 281/1/5 271/1/5 280/1/5
f 281/1/5 232/1/5 265/1/5
f 282/1/5 246/1/5 229/1/5
f 282/1/5 274/1/5 246/1/5
f 283/3/5 275/3/5 274/3/5
f 283/1/5 274/1/5 282/1/5
f 284/1/5 276/1/5 275/1/5
f 284/3/5 275/3/5 283/3/5
f 285/1/5 276/1/5 284/1/5
f 286/3/5 277/3/5 276/3/5
f 286/1/5 278/1/5 277/1/5
f 287/3/5 279/3/5 278/3/5
f 287/1/5 278/1/5 286/1/5
f 288/1/5 280/1/5 279/1/5
f 288/3/5 279/3/5 287/3/5
f 289/3/5 283/3/5 282/3/5
f 289/3/5 285/3/5 284/3/5
f 289/3/5 284/3/5 283/3/5
f 290/3/5 285/3/5 289/3/5
f 291/3/5 287/3/5 286/3/5
f 291/3/5 286/3/5 276/3/5
f 291/1/5 276/1/5 285/1/5
f 292/1/5 288/1/5 287/1/5
f 292/3/5 287/3/5 291/3/5
f 293/1/5 280/1/5 288/1/5
f 293/1/5 288/1/5 292/1/5
f 294/3/5 281/3/5 280/3/5
f 294/1/5 280/1/5 293/1/5
f 295/3/5 281/3/5 294/3/5
f 296/3/5 281/3/5 295/3/5
f 297/1/5 290/1/5 289/1/5
f 297/3/5 289/3/5 282/3/5
f 298/3/5 285/3/5 290/3/5
f 298/1/5 290/1/5 297/1/5
f 299/1/5 292/1/5 291/1/5
f 299/3/5 285/3/5 298/3/5
f 299/1/5 293/1/5 292/1/5
f 299/1/5 291/1/5 285/1/5
f 300/1/5 293/1/5 299/1/5
f 301/1/5 293/1/5 300/1/5
f 302/3/5 295/3/5 294/3/5
f 302/1/5 293/1/5 301/1/5
f 302/3/5 294/3/5 293/3/5
f 303/1/5 296/1/5 295/1/5
f 303/3/5 295/3/5 302/3/5
f 304/3/5 281/3/5 296/3/5
f 304/1/5 296/1/5 303/1/5
f 305/1/5 232/1/5 281/1/5
f 305/3/5 281/3/5 304/3/5
f 306/1/5 232/1/5 305/1/5
f 307/3/5 298/3/5 297/3/5
f 307/1/5 301/1/5 300/1/5
f 307/3/5 300/3/5 299/3/5
f 307/3/5 299/3/5 298/3/5
f 308/1/5 301/1/5 307/1/5
f 309/3/5 303/3/5 302/3/5
f 309/3/5 302/3/5 301/3/5
f 309/3/5 304/3/5 303/3/5
f 309/3/5 306/3/5 305/3/5
f 309/3/5 305/3/5 304/3/5
f 310/3/5 306/3/5 309/3/5
f 311/3/5 306/3/5 310/3/5
f 312/3/5 306/3/5 311/3/5
f 313/3/5 308/3/5 307/3/5
f 313/3/5 307/3/5 297/3/5
f 314/3/5 308/3/5 313/3/5
f 315/1/5 301/1/5 308/1/5
f 315/3/5 309/3/5 301/3/5
f 316/3/5 309/3/5 315/3/5
f 317/1/5 310/1/5 309/1/5
f 317/3/5 309/3/5 316/3/5
f 318/3/5 311/3/5 310/3/5
f 318/1/5 310/1/5 317/1/5
f 319/1/5 312/1/5 311/1/5
f 319/3/5 311/3/5 318/3/5
f 320/1/5 312/1/5 319/1/5
f 321/3/5 297/3/5 282/3/5
f 321/1/5 282/1/5 229/1/5
f 321/3/5 313/3/5 297/3/5
f 322/3/5 313/3/5 321/3/5
f 323/1/5 314/1/5 313/1/5
f 323/3/5 313/3/5 322/3/5
f 324/3/5 308/3/5 314/3/5
f 324/1/5 314/1/5 323/1/5
f 325/3/5 318/3/5 317/3/5
f 325/3/5 320/3/5 319/3/5
f 325/3/5 317/3/5 316/3/5
f 325/3/5 319/3/5 318/3/5
f 326/3/5 320/3/5 325/3/5
f 327/1/5 322/1/5 321/1/5
f 328/3/5 323/3/5 322/3/5
f 328/1/5 322/1/5 327/1/5
f 328/3/5 324/3/5 323/3/5
f 329/3/5 324/3/5 328/3/5
f 330/3/5 308/3/5 324/3/5
f 330/3/5 324/3/5 329/3/5
f 330/1/5 316/1/5 315/1/5
f 330/1/5 315/1/5 308/1/5
f 331/1/5 316/1/5 330/1/5
f 332/3/5 325/3/5 316/3/5
f 332/1/5 316/1/5 331/1/5
f 333/3/5 325/3/5 332/3/5
f 334/1/5 326/1/5 325/1/5
f 334/3/5 325/3/5 333/3/5
f 335/3/5 320/3/5 326/3/5
f 335/1/5 326/1/5 334/1/5
f 336/3/5 320/3/5 335/3/5
f 337/1/5 327/1/5 321/1/5
f 337/3/5 329/3/5 328/3/5
f 337/3/5 328/3/5 327/3/5
f 338/1/5 331/1/5 330/1/5
f 338/3/5 329/3/5 337/3/5
f 338/1/5 330/1/5 329/1/5
f 339/3/5 332/3/5 331/3/5
f 339/1/5 331/1/5 338/1/5
f 340/3/5 332/3/5 339/3/5
f 341/1/5 333/1/5 332/1/5
f 341/3/5 332/3/5 340/3/5
f 342/3/5 334/3/5 333/3/5
f 342/1/5 333/1/5 341/1/5
f 342/3/5 335/3/5 334/3/5
f 343/3/5 335/3/5 342/3/5
f 344/3/5 335/3/5 343/3/5
f 345/1/5 340/1/5 339/1/5
f 345/1/5 339/1/5 338/1/5
f 345/1/5 321/1/5 229/1/5
f 345/1/5 337/1/5 321/1/5
f 345/1/5 338/1/5 337/1/5
f 346/3/5 341/3/5 340/3/5
f 346/1/5 340/1/5 345/1/5
f 346/3/5 343/3/5 342/3/5
f 346/3/5 342/3/5 341/3/5
f 347/1/5 344/1/5 343/1/5
f 347/3/5 343/3/5 346/3/5
f 348/3/5 335/3/5 344/3/5
f 348/1/5 344/1/5 347/1/5
f 349/1/5 336/1/5 335/1/5
f 349/3/5 335/3/5 348/3/5
f 350/1/5 336/1/5 349/1/5
f 351/1/6 352/1/6 355/1/6
f 352/3/6 353/3/6 355/3/6
f 355/3/6 353/3/6 356/3/6
f 356/3/6 353/3/6 357/3/6
f 353/1/6 354/1/6 358/1/6
f 358/1/6 354/1/6 359/1/6
f 351/1/6 355/1/6 360/1/6
f 355/1/6 356/1/6 360/1/6
f 360/1/6 356/1/6 361/1/6
f 357/3/6 353/3/6 362/3/6
f 353/1/6 358/1/6 363/1/6
f 362/3/6 353/3/6 363/3/6
f 358/3/6 359/3/6 364/3/6
f 359/1/6 354/1/6 365/1/6
f 364/3/6 359/3/6 365/3/6
f 365/1/6 354/1/6 366/1/6
f 366/1/6 354/1/6 367/1/6
f 367/1/6 354/1/6 368/1/6
f 360/3/6 361/3/6 369/3/6
f 351/1/6 360/1/6 369/1/6
f 361/1/6 362/1/6 370/1/6
f 369/3/6 361/3/6 370/3/6
f 362/1/6 363/1/6 370/1/6
f 370/1/6 363/1/6 371/1/6
f 358/3/6 364/3/6 372/3/6
f 371/1/6 363/1/6 372/1/6
f 363/1/6 358/1/6 372/1/6
f 372/3/6 364/3/6 373/3/6
f 365/3/6 366/3/6 374/3/6
f 374/3/6 366/3/6 375/3/6
f 366/1/6 367/1/6 376/1/6
f 375/3/6 366/3/6 376/3/6
f 376/1/6 367/1/6 377/1/6
f 367/3/6 368/3/6 378/3/6
f 377/1/6 367/1/6 378/1/6
f 378/3/6 368/3/6 379/3/6
f 379/3/6 368/3/6 380/3/6
f 372/3/6 373/3/6 381/3/6
f 374/3/6 375/3/6 381/3/6
f 371/3/6 372/3/6 381/3/6
f 373/3/6 374/3/6 381/3/6
f 381/3/6 375/3/6 382/3/6
f 382/3/6 375/3/6 383/3/6
f 376/1/6 377/1/6 384/1/6
f 383/3/6 375/3/6 384/3/6
f 375/1/6 376/1/6 384/1/6
f 378/3/6 379/3/6 385/3/6
f 384/1/6 377/1/6 385/1/6
f 377/3/6 378/3/6 385/3/6
f 385/3/6 379/3/6 386/3/6
f 380/3/6 368/3/6 387/3/6
f 368/1/6 354/1/6 388/1/6
f 387/3/6 368/3/6 388/3/6
f 370/1/6 371/1/6 389/1/6
f 369/1/6 370/1/6 389/1/6
f 371/3/6 381/3/6 389/3/6
f 389/3/6 381/3/6 390/3/6
f 382/3/6 383/3/6 391/3/6
f 385/1/6 386/1/6 392/1/6
f 383/1/6 384/1/6 392/1/6
f 391/3/6 383/3/6 392/3/6
f 384/1/6 385/1/6 392/1/6
f 386/3/6 387/3/6 393/3/6
f 392/1/6 386/1/6 393/1/6
f 387/1/6 388/1/6 394/1/6
f 393/3/6 387/3/6 394/3/6
f 391/1/6 392/1/6 395/1/6
f 392/1/6 393/1/6 395/1/6
f 393/1/6 394/1/6 395/1/6
f 389/1/6 390/1/6 395/1/6
f 390/1/6 391/1/6 395/1/6
f 395/1/6 394/1/6 396/1/6
f 369/1/6 389/1/6 397/1/6
f 389/1/6 395/1/6 397/1/6
f 397/1/6 395/1/6 398/1/6
f 398/1/6 395/1/6 399/1/6
f 395/3/6 396/3/6 400/3/6
f 399/1/6 395/1/6 400/1/6
f 396/1/6 394/1/6 401/1/6
f 400/3/6 396/3/6 401/3/6
f 401/1/6 394/1/6 402/1/6
f 402/1/6 394/1/6 403/1/6
f 394/1/6 388/1/6 404/1/6
f 403/1/6 394/1/6 404/1/6
f 388/1/6 354/1/6 404/1/6
f 351/1/6 369/1/6 405/1/6
f 369/1/6 397/1/6 405/1/6
f 397/3/6 398/3/6 406/3/6
f 405/1/6 397/1/6 406/1/6
f 398/1/6 399/1/6 407/1/6
f 406/3/6 398/3/6 407/3/6
f 407/1/6 399/1/6 408/1/6
f 399/3/6 400/3/6 409/3/6
f 401/3/6 402/3/6 410/3/6
f 402/1/6 403/1/6 411/1/6
f 410/3/6 402/3/6 411/3/6
f 405/3/6 406/3/6 412/3/6
f 406/3/6 407/3/6 412/3/6
f 407/3/6 408/3/6 412/3/6
f 412/3/6 408/3/6 413/3/6
f 409/3/6 410/3/6 414/3/6
f 399/3/6 409/3/6 414/3/6
f 408/1/6 399/1/6 414/1/6
f 410/1/6 411/1/6 415/1/6
f 414/3/6 410/3/6 415/3/6
f 411/1/6 403/1/6 416/1/6
f 415/1/6 411/1/6 416/1/6
f 403/3/6 404/3/6 417/3/6
f 416/1/6 403/1/6 417/1/6
f 417/3/6 404/3/6 418/3/6
f 418/3/6 404/3/6 419/3/6
f 405/3/6 412/3/6 420/3/6
f 413/3/6 408/3/6 421/3/6
f 414/1/6 415/1/6 422/1/6
f 415/1/6 416/1/6 422/1/6
f 421/3/6 408/3/6 422/3/6
f 408/1/6 414/1/6 422/1/6
f 422/1/6 416/1/6 423/1/6
f 423/1/6 416/1/6 424/1/6
f 417/3/6 418/3/6 425/3/6
f 424/1/6 416/1/6 425/1/6
f 416/3/6 417/3/6 425/3/6
f 425/3/6 418/3/6 426/3/6
f 419/3/6 404/3/6 427/3/6
f 404/1/6 354/1/6 428/1/6
f 427/3/6 404/3/6 428/3/6
f 428/1/6 354/1/6 429/1/6
f 423/1/6 424/1/6 430/1/6
f 420/3/6 421/3/6 430/3/6
f 422/3/6 423/3/6 430/3/6
f 421/3/6 422/3/6 430/3/6
f 430/1/6 424/1/6 431/1/6
f 425/3/6 426/3/6 432/3/6
f 426/3/6 427/3/6 432/3/6
f 428/3/6 429/3/6 432/3/6
f 427/3/6 428/3/6 432/3/6
f 424/3/6 425/3/6 432/3/6
f 432/3/6 429/3/6 433/3/6
f 433/3/6 429/3/6 434/3/6
f 434/3/6 429/3/6 435/3/6
f 430/3/6 431/3/6 436/3/6
f 420/3/6 430/3/6 436/3/6
f 436/3/6 431/3/6 437/3/6
f 431/1/6 424/1/6 438/1/6
f 424/3/6 432/3/6 438/3/6
f 438/3/6 432/3/6 439/3/6
f 439/3/6 432/3/6 440/3/6
f 433/3/6 434/3/6 441/3/6
f 434/1/6 435/1/6 442/1/6
f 441/3/6 434/3/6 442/3/6
f 442/1/6 435/1/6 443/1/6
f 405/3/6 420/3/6 444/3/6
f 351/1/6 405/1/6 444/1/6
f 420/3/6 436/3/6 444/3/6
f 444/3/6 436/3/6 445/3/6
f 445/3/6 436/3/6 446/3/6
f 446/3/6 436/3/6 447/3/6
f 437/3/6 431/3/6 448/3/6
f 440/3/6 441/3/6 449/3/6
f 442/3/6 443/3/6 449/3/6
f 441/3/6 442/3/6 449/3/6
f 439/3/6 440/3/6 449/3/6
f 449/3/6 443/3/6 450/3/6
f 444/1/6 445/1/6 451/1/6
f 446/3/6 447/3/6 452/3/6
f 447/3/6 448/3/6 452/3/6
f 452/3/6 448/3/6 453/3/6
f 448/3/6 431/3/6 454/3/6
f 453/3/6 448/3/6 454/3/6
f 431/1/6 438/1/6 454/1/6
f 438/1/6 439/1/6 454/1/6
f 454/1/6 439/1/6 455/1/6
f 439/3/6 449/3/6 456/3/6
f 455/1/6 439/1/6 456/1/6
f 456/3/6 449/3/6 457/3/6
f 457/3/6 449/3/6 458/3/6
f 450/3/6 443/3/6 459/3/6
f 459/3/6 443/3/6 460/3/6
f 444/1/6 451/1/6 461/1/6
f 452/3/6 453/3/6 461/3/6
f 451/3/6 452/3/6 461/3/6
f 454/1/6 455/1/6 462/1/6
f 461/3/6 453/3/6 462/3/6
f 453/1/6 454/1/6 462/1/6
f 455/3/6 456/3/6 463/3/6
f 462/1/6 455/1/6 463/1/6
f 463/3/6 456/3/6 464/3/6
f 464/3/6 456/3/6 465/3/6
f 457/3/6 458/3/6 466/3/6
f 458/3/6 459/3/6 466/3/6
f 466/3/6 459/3/6 467/3/6
f 467/3/6 459/3/6 468/3/6
f 444/1/6 461/1/6 469/1/6
f 463/1/6 464/1/6 469/1/6
f 351/1/6 444/1/6 469/1/6
f 461/1/6 462/1/6 469/1/6
f 462/1/6 463/1/6 469/1/6
f 464/3/6 465/3/6 470/3/6
f 469/1/6 464/1/6 470/1/6
f 466/3/6 467/3/6 470/3/6
f 465/3/6 466/3/6 470/3/6
f 467/1/6 468/1/6 471/1/6
f 470/3/6 467/3/6 471/3/6
f 468/3/6 459/3/6 472/3/6
f 471/1/6 468/1/6 472/1/6
f 459/1/6 460/1/6 473/1/6
f 472/3/6 459/3/6 473/3/6
f 473/1/6 460/1/6 474/1/6
f 475/2/6 476/2/6 477/2/6
f 477/2/6 476/2/6 478/2/6
f 479/2/6 480/2/6 481/2/6
f 481/2/6 480/2/6 482/2/6
f 483/2/6 484/2/6 485/2/6
f 485/2/6 484/2/6 486/2/6
f 487/2/6 488/2/6 491/2/6
f 491/2/6 488/2/6 492/2/6
f 489/2/6 490/2/6 493/2/6
f 493/2/6 490/2/6 494/2/6
f 495/2/6 496/2/6 497/2/6
f 497/2/6 496/2/6 498/2/6
f 499/2/6 500/2/6 501/2/6
f 501/2/6 500/2/6 502/2/6
f 503/2/6 504/2/6 505/2/6
f 505/2/6 504/2/6 506/2/6
f 507/2/6 508/2/6 509/2/6
f 509/2/6 508/2/6 510/2/6
f 511/2/6 512/2/6 513/2/6
f 513/2/6 512/2/6 514/2/6
f 515/2/6 516/2/6 519/2/6
f 519/2/6 516/2/6 520/2/6
f 517/2/6 518/2/6 521/2/6
f 521/2/6 518/2/6 522/2/6
